# Blender 5.0.0
# www.blender.org
o Cube.001
v -0.036018 -0.040180 -0.058222
v -0.044987 -0.032169 -0.058222
v 0.036018 0.040180 -0.058222
v 0.044987 0.032169 -0.058222
v -0.044987 0.032169 -0.058222
v -0.036018 0.040180 -0.058222
v 0.044987 -0.032169 -0.058222
v 0.036018 -0.040180 -0.058222
v -0.019888 0.046830 -0.058222
v 0.019888 0.046830 -0.058222
v 0.019888 -0.046830 -0.058222
v -0.019888 -0.046830 -0.058222
v 0.036018 0.040180 0.096676
v 0.044987 0.032169 0.096676
v -0.044987 0.032169 0.096676
v -0.036018 0.040180 0.096676
v 0.044987 -0.032169 0.096676
v -0.044987 -0.032169 0.096676
v 0.036018 -0.040180 0.096676
v -0.036018 -0.040180 0.096676
v -0.019888 0.046830 0.096676
v 0.019888 0.046830 0.096676
v 0.019888 -0.046830 0.096676
v -0.019888 -0.046830 0.096676
v 0.023936 0.027116 0.277208
v 0.029685 0.014131 0.278976
v -0.029685 0.014131 0.278976
v -0.023936 0.027116 0.277208
v 0.029685 -0.014131 0.278976
v -0.029685 -0.014131 0.278976
v 0.023936 -0.027116 0.277208
v -0.023936 -0.027116 0.277208
v -0.007116 0.030583 0.281669
v 0.007116 0.030583 0.281669
v 0.007116 -0.030583 0.281669
v -0.007116 -0.030583 0.281669
v 0.039822 0.048383 0.096676
v 0.054171 0.035567 0.096676
v -0.054171 0.035567 0.096676
v -0.039822 0.048383 0.096676
v 0.054171 -0.035567 0.096676
v -0.054171 -0.035567 0.096676
v 0.039822 -0.048383 0.096676
v -0.039822 -0.048383 0.096676
v -0.019839 0.057178 0.096676
v 0.019839 0.057178 0.096676
v 0.019839 -0.057178 0.096676
v -0.019839 -0.057178 0.096676
v 0.013314 0.053798 0.161791
v -0.013314 0.053798 0.161791
v 0.039822 0.048383 0.143716
v 0.051063 0.026820 0.160504
v -0.051063 0.026820 0.160504
v -0.039822 0.048383 0.143716
v 0.051063 -0.026820 0.160504
v -0.051063 -0.026820 0.160504
v 0.039822 -0.048383 0.143716
v -0.039822 -0.048383 0.143716
v 0.013314 -0.053798 0.161791
v -0.013314 -0.053798 0.161791
v 0.002693 0.003467 0.412468
v -0.002693 0.003467 0.412468
v 0.002693 -0.003467 0.412468
v -0.002693 -0.003467 0.412468
v -0.000000 0.000000 0.422893
v 0.044987 0.000000 -0.058222
v 0.044987 0.000000 0.096676
v 0.038284 0.000000 0.283204
v 0.054171 0.000000 0.096676
v 0.064211 0.000000 0.177822
v 0.002693 0.000000 0.412468
v -0.044987 0.000000 -0.058222
v -0.044987 0.000000 0.096676
v -0.038284 0.000000 0.283204
v -0.054171 0.000000 0.096676
v -0.064211 0.000000 0.177822
v -0.002693 0.000000 0.412468
v 0.000000 0.046830 -0.058222
v 0.000000 -0.046830 -0.058222
v 0.000000 0.046830 0.096676
v 0.000000 -0.046830 0.096676
v 0.000000 0.039610 0.275799
v 0.000000 -0.039610 0.275799
v 0.000000 0.057178 0.096676
v 0.000000 -0.057178 0.096676
v 0.000000 0.064993 0.172249
v 0.000000 -0.064993 0.172249
v 0.000000 0.003467 0.412468
v 0.000000 -0.003467 0.412468
v -0.054171 0.035567 0.145635
v -0.027584 0.019725 0.293691
v 0.023293 0.000000 0.314169
v 0.027584 -0.019725 0.293691
v -0.023293 0.000000 0.314169
v -0.027584 -0.019725 0.293691
v 0.000000 0.024362 0.315685
v 0.012187 0.028714 0.295523
v 0.000000 -0.024362 0.315685
v -0.012187 -0.028714 0.295523
v 0.027584 0.019725 0.293691
v 0.054171 0.035567 0.145635
v 0.019834 -0.057178 0.147568
v 0.012187 -0.028714 0.295523
v -0.019834 -0.057178 0.147568
v 0.054171 0.000000 0.128171
v 0.054171 -0.035567 0.145635
v -0.054171 0.000000 0.128171
v -0.054171 -0.035567 0.145635
v 0.000000 0.057178 0.129414
v 0.019834 0.057178 0.147568
v 0.000000 -0.057178 0.129414
v -0.012187 0.028714 0.295523
v -0.019834 0.057178 0.147568
v -0.044987 -0.032169 0.000000
v -0.044987 0.032169 0.000000
v 0.019888 0.046830 0.000000
v 0.036018 0.040180 0.000000
v 0.044987 0.032169 0.000000
v 0.019888 -0.046830 0.000000
v -0.019888 -0.046830 0.000000
v 0.044987 -0.032169 0.000000
v 0.036018 -0.040180 0.000000
v -0.036018 0.040180 0.000000
v -0.019888 0.046830 0.000000
v -0.036018 -0.040180 0.000000
v 0.044987 0.000000 0.000000
v -0.044987 0.000000 0.000000
v 0.000000 0.046830 0.000000
v 0.000000 -0.046830 0.000000
vn -0.0000 -0.0000 -1.0000
vn -0.8165 0.5405 0.2032
vn 0.4239 0.8852 0.1918
vn -1.0000 -0.0000 -0.0000
vn 0.3811 0.9245 -0.0000
vn 0.6661 0.7458 -0.0000
vn -0.0000 -1.0000 -0.0000
vn 0.6661 -0.7458 -0.0000
vn -0.3811 0.9245 -0.0000
vn -0.6661 0.7458 -0.0000
vn -0.6661 -0.7458 -0.0000
vn -0.3811 -0.9245 -0.0000
vn 1.0000 -0.0000 -0.0000
vn -0.0000 1.0000 -0.0000
vn 0.3811 -0.9245 -0.0000
vn -0.0000 0.9775 0.2110
vn 0.5111 -0.8295 0.2253
vn -0.5111 -0.8295 0.2253
vn 0.8165 -0.5405 0.2032
vn -0.6379 0.7452 0.1944
vn 0.6379 0.7452 0.1944
vn -0.7123 -0.6815 0.1680
vn 0.4028 -0.9153 -0.0000
vn 0.4028 0.9153 -0.0000
vn -0.4028 0.9153 -0.0000
vn -0.4028 -0.9153 -0.0000
vn -0.4239 0.8852 0.1918
vn 0.6379 -0.7452 0.1944
vn -0.4239 -0.8852 0.1918
vn -0.6379 -0.7452 0.1944
vn 0.4239 -0.8852 0.1918
vn 0.7123 0.6815 0.1680
vn -0.5111 0.8295 0.2253
vn -0.0000 0.9489 0.3156
vn 0.5111 0.8295 0.2253
vn -0.0000 -0.9775 0.2110
vn -0.9787 -0.0000 0.2051
vn 0.9787 -0.0000 0.2051
vn -0.9682 -0.0000 0.2502
vn -0.0000 -0.9489 0.3156
vn 0.9682 -0.0000 0.2502
vn 0.8165 0.5405 0.2032
vn -0.8165 -0.5405 0.2032
vn -0.7123 0.6815 0.1680
vn 0.7123 -0.6815 0.1680
vn -0.9832 -0.0672 0.1697
vn 0.8968 -0.3295 0.2952
vn -0.8968 -0.3295 0.2952
vn 0.3955 0.8853 0.2447
vn -0.3955 -0.8853 0.2447
vn 0.9832 -0.0672 0.1697
vn -0.1214 -0.9758 0.1820
vn 0.1214 -0.9758 0.1820
vn 0.9756 -0.2058 -0.0769
vn -0.9756 -0.2058 -0.0769
vn 0.3273 0.9442 -0.0360
vn -0.3273 -0.9442 -0.0360
vn 0.9832 0.0672 0.1697
vn -0.1214 0.9758 0.1820
vn -0.9832 0.0672 0.1697
vn 0.1214 0.9758 0.1820
vn 0.8968 0.3295 0.2952
vn 0.9756 0.2058 -0.0769
vn -0.8968 0.3295 0.2952
vn -0.9756 0.2058 -0.0769
vn -0.3955 0.8853 0.2447
vn 0.3955 -0.8853 0.2447
vn -0.3273 0.9442 -0.0360
vn 0.3273 -0.9442 -0.0360
vt 0.583118 0.866553
vt 0.585288 0.835133
vt 0.414712 0.835133
vt 0.416882 0.866553
vt 0.412323 0.800535
vt 0.587677 0.800535
vt 0.568260 0.788930
vt 0.500000 0.788930
vt 0.431740 0.788930
vt 0.419052 0.897973
vt 0.421441 0.932571
vt 0.437771 0.948850
vt 0.500000 0.948850
vt 0.562229 0.948850
vt 0.578559 0.932571
vt 0.580949 0.897973
vt 0.499972 0.941036
vt 0.541571 0.946523
vt 0.549308 0.948586
vt 0.499985 0.947952
vt 0.587677 0.800535
vt 0.500000 0.948850
vt 0.587677 0.800535
vt 0.568260 0.788930
vt 0.416882 0.866553
vt 0.580949 0.897973
vt 0.578559 0.932571
vt 0.421441 0.932571
vt 0.419052 0.897973
vt 0.500000 0.788930
vt 0.500000 0.788930
vt 0.580261 0.866553
vt 0.566546 0.866553
vt 0.568283 0.835133
vt 0.431717 0.835133
vt 0.435191 0.897973
vt 0.499969 0.796027
vt 0.454400 0.791043
vt 0.445914 0.789170
vt 0.499984 0.789745
vt 0.419410 0.866599
vt 0.419134 0.883829
vt 0.418527 0.888587
vt 0.417190 0.866578
vt 0.500000 0.788930
vt 0.580597 0.866507
vt 0.583252 0.849277
vt 0.584516 0.844519
vt 0.582814 0.866529
vt 0.564809 0.897973
vt 0.500000 0.866553
vt 0.433454 0.866553
vt 0.419739 0.866553
vt 0.500000 0.940079
vt 0.500000 0.897973
vt 0.500000 0.835133
vt 0.500000 0.796895
vt 0.545600 0.791043
vt 0.554086 0.789170
vt 0.458429 0.946523
vt 0.450692 0.948586
vt 0.580866 0.883829
vt 0.581473 0.888587
vt 0.416748 0.849277
vt 0.415484 0.844519
s 0
f 78/1/1 10/2/1 11/3/1 79/4/1
f 8/5/1 11/3/1 10/2/1 3/6/1 4/7/1 66/8/1 7/9/1
f 12/10/1 1/11/1 2/12/1 72/13/1 5/14/1 6/15/1 9/16/1
f 74/17/2 27/18/2 53/19/2 76/20/2
f 97/2/3 25/21/3 51/6/3 110/2/3
f 80/1/1 21/16/1 45/16/1 84/1/1
f 127/13/4 114/12/4 18/12/4 73/22/4
f 117/23/5 116/2/5 22/2/5 13/6/5
f 118/24/6 117/23/6 13/6/6 14/7/6
f 129/25/7 119/3/7 23/3/7 81/4/7
f 122/5/8 121/9/8 17/9/8 19/5/8
f 124/26/9 123/27/9 16/15/9 21/16/9
f 123/27/10 115/14/10 15/14/10 16/15/10
f 114/12/11 125/28/11 20/11/11 18/12/11
f 125/28/12 120/29/12 24/10/12 20/11/12
f 126/30/13 118/24/13 14/7/13 67/31/13
f 128/1/14 124/26/14 21/16/14 80/1/14
f 119/3/15 122/5/15 19/5/15 23/3/15
f 96/32/16 88/33/16 61/34/16 97/2/16
f 31/5/17 93/9/17 63/35/17 103/3/17
f 99/10/18 64/36/18 95/12/18 32/11/18
f 68/37/19 29/38/19 55/39/19 70/40/19
f 23/3/1 19/5/1 43/5/1 47/3/1
f 18/12/1 20/11/1 44/11/1 42/12/1
f 91/14/20 28/27/20 54/15/20 90/14/20
f 20/11/1 24/10/1 48/10/1 44/11/1
f 19/5/1 17/9/1 41/9/1 43/5/1
f 25/21/21 100/7/21 101/7/21 51/6/21
f 21/16/1 16/15/1 40/15/1 45/16/1
f 83/41/22 36/42/22 60/43/22 87/44/22
f 75/13/4 42/12/4 108/12/4 107/13/4
f 47/3/23 43/5/23 57/5/23 102/3/23
f 84/1/14 45/16/14 113/16/14 109/1/14
f 37/6/24 46/2/24 110/2/24 51/6/24
f 38/7/6 37/6/6 51/6/6 101/7/6
f 85/4/7 47/3/7 102/3/7 111/25/7
f 43/5/8 41/9/8 106/9/8 57/5/8
f 45/16/25 40/15/25 54/15/25 113/16/25
f 40/15/10 39/14/10 90/14/10 54/15/10
f 42/12/11 44/11/11 58/11/11 108/12/11
f 44/11/26 48/10/26 104/10/26 58/11/26
f 69/45/13 38/7/13 101/7/13 105/45/13
f 81/4/1 23/3/1 47/3/1 85/4/1
f 28/27/27 112/16/27 113/16/27 54/15/27
f 14/7/1 13/6/1 37/6/1 38/7/1
f 93/9/28 31/5/28 57/5/28 106/9/28
f 99/10/29 32/11/29 58/11/29 104/10/29
f 16/15/1 15/14/1 39/14/1 40/15/1
f 32/11/30 95/12/30 108/12/30 58/11/30
f 31/5/31 103/3/31 102/3/31 57/5/31
f 67/31/1 14/7/1 38/7/1 69/45/1
f 82/46/32 34/47/32 49/48/32 86/49/32
f 13/6/1 22/2/1 46/2/1 37/6/1
f 73/22/1 18/12/1 42/12/1 75/13/1
f 91/14/33 62/50/33 112/16/33 28/27/33
f 61/34/34 88/33/34 62/50/34 65/51/34
f 61/34/35 100/7/35 25/21/35 97/2/35
f 89/52/36 64/36/36 99/10/36 98/53/36
f 94/54/37 77/55/37 62/50/37 91/14/37
f 71/56/38 92/57/38 100/7/38 61/34/38
f 65/51/39 62/50/39 77/55/39 64/36/39
f 64/36/40 89/52/40 63/35/40 65/51/40
f 63/35/41 71/56/41 61/34/41 65/51/41
f 63/35/38 93/9/38 92/57/38 71/56/38
f 17/9/1 67/31/1 69/45/1 41/9/1
f 41/9/13 69/45/13 105/45/13 106/9/13
f 26/58/42 68/37/42 70/40/42 52/59/42
f 121/9/13 126/30/13 67/31/13 17/9/13
f 95/12/37 64/36/37 77/55/37 94/54/37
f 15/14/1 73/22/1 75/13/1 39/14/1
f 39/14/4 75/13/4 107/13/4 90/14/4
f 115/14/4 127/13/4 73/22/4 15/14/4
f 30/60/43 74/17/43 76/20/43 56/61/43
f 63/35/36 89/52/36 98/53/36 103/3/36
f 33/62/44 82/46/44 86/49/44 50/63/44
f 24/10/1 81/4/1 85/4/1 48/10/1
f 48/10/7 85/4/7 111/25/7 104/10/7
f 46/2/14 84/1/14 109/1/14 110/2/14
f 35/64/45 83/41/45 87/44/45 59/65/45
f 112/16/16 62/50/16 88/33/16 96/32/16
f 116/2/14 128/1/14 80/1/14 22/2/14
f 120/29/7 129/25/7 81/4/7 24/10/7
f 22/2/1 80/1/1 84/1/1 46/2/1
f 9/16/1 78/1/1 79/4/1 12/10/1
f 53/19/46 27/18/46 91/14/46 90/14/46
f 29/38/47 68/37/47 92/57/47 93/9/47
f 74/17/48 30/60/48 95/12/48 94/54/48
f 34/47/49 82/46/49 96/32/49 97/2/49
f 36/42/50 83/41/50 98/53/50 99/10/50
f 26/58/51 52/59/51 101/7/51 100/7/51
f 35/64/52 59/65/52 102/3/52 103/3/52
f 60/43/53 36/42/53 99/10/53 104/10/53
f 70/40/54 55/39/54 106/9/54 105/45/54
f 56/61/55 76/20/55 107/13/55 108/12/55
f 86/49/56 49/48/56 110/2/56 109/1/56
f 87/44/57 60/43/57 104/10/57 111/25/57
f 55/39/58 29/38/58 93/9/58 106/9/58
f 49/48/59 34/47/59 97/2/59 110/2/59
f 30/60/60 56/61/60 108/12/60 95/12/60
f 33/62/61 50/63/61 113/16/61 112/16/61
f 68/37/62 26/58/62 100/7/62 92/57/62
f 52/59/63 70/40/63 105/45/63 101/7/63
f 27/18/64 74/17/64 94/54/64 91/14/64
f 76/20/65 53/19/65 90/14/65 107/13/65
f 82/46/66 33/62/66 112/16/66 96/32/66
f 83/41/67 35/64/67 103/3/67 98/53/67
f 50/63/68 86/49/68 109/1/68 113/16/68
f 59/65/69 87/44/69 111/25/69 102/3/69
f 12/10/7 79/4/7 129/25/7 120/29/7
f 10/2/14 78/1/14 128/1/14 116/2/14
f 5/14/4 72/13/4 127/13/4 115/14/4
f 7/9/13 66/8/13 126/30/13 121/9/13
f 11/3/15 8/5/15 122/5/15 119/3/15
f 78/1/14 9/16/14 124/26/14 128/1/14
f 66/8/13 4/7/13 118/24/13 126/30/13
f 1/11/12 12/10/12 120/29/12 125/28/12
f 2/12/11 1/11/11 125/28/11 114/12/11
f 6/15/10 5/14/10 115/14/10 123/27/10
f 9/16/9 6/15/9 123/27/9 124/26/9
f 8/5/8 7/9/8 121/9/8 122/5/8
f 79/4/7 11/3/7 119/3/7 129/25/7
f 4/7/6 3/6/6 117/23/6 118/24/6
f 3/6/5 10/2/5 116/2/5 117/23/5
f 72/13/4 2/12/4 114/12/4 127/13/4
