# Blender 5.0.0
# www.blender.org
o Plane
v 0.000000 -0.046429 0.245801
v 0.000000 -0.054105 0.244204
v -0.000000 0.346705 0.243728
v 0.000000 0.337059 0.246337
v 0.000000 0.398925 0.166438
v 0.000000 0.389620 0.175918
v 0.000000 0.477881 0.135426
v -0.000000 0.471174 0.143678
v 0.000000 0.474293 0.090136
v 0.000000 0.477108 0.096932
v 0.000000 0.396027 0.054758
v -0.000000 0.403277 0.066592
v 0.000000 0.406128 -0.067644
v -0.000000 0.396782 -0.057846
v 0.000000 -0.068271 0.184274
v 0.000000 -0.070340 0.174221
v 0.000000 -0.077013 0.070290
v 0.000000 -0.075445 0.061640
v 0.000000 -0.076155 -0.058050
v 0.000000 -0.076086 -0.067428
v 0.062589 0.395889 0.053848
v 0.000000 0.476524 -0.091405
v 0.000000 0.474690 -0.089149
v 0.000000 0.470892 -0.143598
v 0.000000 0.476958 -0.134968
v 0.000000 0.395238 -0.166514
v 0.000000 -0.067847 -0.167341
v 0.000000 -0.082291 0.090746
v 0.000000 -0.079921 0.078967
v 0.000000 -0.076671 0.159439
v 0.000000 -0.080673 0.148177
v 0.000000 -0.077758 0.054078
v 0.000000 -0.081062 0.046608
v 0.000000 -0.083424 -0.036988
v 0.000000 -0.080374 -0.048276
v 0.000000 -0.054917 -0.175421
v 0.000000 -0.044270 -0.180055
v -0.000000 0.371054 -0.179075
v 0.000000 0.380221 -0.174536
v 0.000000 -0.078826 -0.075607
v 0.000000 -0.080871 -0.083050
v 0.000000 -0.079648 -0.151850
v 0.000000 -0.074234 -0.161666
v 0.000000 0.431569 -0.063858
v -0.000000 0.420567 -0.071396
v 0.000000 0.472152 -0.086863
v 0.000000 0.463827 -0.076699
v -0.000000 0.463201 0.075053
v -0.000000 0.470559 0.085807
v 0.061193 0.396338 -0.056176
v 0.000000 0.421047 0.071415
v 0.000000 0.431731 0.063358
v 0.060522 -0.047456 0.243660
v 0.054184 -0.053364 0.244141
v 0.052158 -0.046459 0.245570
v 0.060530 0.339828 0.244170
v 0.052209 0.337111 0.246086
v 0.053749 0.346494 0.243648
v 0.073738 0.394786 0.168719
v 0.081065 0.395452 0.164787
v 0.087285 0.384991 0.167231
v 0.084104 0.380340 0.179933
v 0.075549 0.387055 0.178093
v 0.083416 -0.062019 0.183390
v 0.086459 -0.053903 0.181785
v 0.089055 -0.054715 0.169788
v 0.087125 -0.066683 0.158746
v 0.082669 -0.067529 0.171252
v 0.044178 0.475798 0.135940
v 0.052924 0.469853 0.138224
v 0.044431 0.468064 0.145360
v 0.076664 0.403877 0.067151
v 0.065825 0.398764 0.062650
v 0.087585 0.392013 0.054059
v 0.091396 0.382735 0.054132
v 0.091596 0.382795 0.066658
v 0.088077 0.394899 0.068664
v 0.047370 0.465787 0.083832
v 0.054575 0.470337 0.093046
v 0.044166 0.475267 0.094399
v 0.035716 0.472268 0.088106
v 0.064629 0.400260 -0.064295
v 0.077324 0.404839 -0.067666
v 0.088612 0.395016 -0.070836
v 0.091474 0.383589 -0.068763
v 0.091302 0.383505 -0.056265
v 0.087575 0.392544 -0.055755
v 0.089074 -0.067289 0.079265
v 0.091991 -0.056195 0.070597
v 0.092013 -0.056251 0.058028
v 0.089928 -0.067491 0.050470
v 0.087157 -0.071458 0.059271
v 0.085994 -0.071589 0.068572
v 0.091947 -0.056318 -0.071988
v 0.089214 -0.067869 -0.078596
v 0.084758 -0.072299 -0.069942
v 0.089050 -0.068210 -0.060815
v 0.089863 -0.067643 -0.048235
v 0.091974 -0.056305 -0.059397
v 0.036657 0.473279 -0.088573
v 0.046902 0.474131 -0.092399
v 0.057026 0.467958 -0.091689
v 0.049302 0.465000 -0.083512
v 0.075137 0.395097 -0.165462
v 0.087910 0.383137 -0.160857
v 0.083542 0.394952 -0.159176
v 0.047382 0.467418 -0.145421
v 0.055245 0.468050 -0.138032
v 0.046731 0.474309 -0.136039
v 0.085847 -0.069081 -0.151634
v 0.089311 -0.057192 -0.154332
v 0.078566 -0.069097 -0.163223
v 0.077147 -0.075001 0.157562
v 0.083983 -0.073090 0.150652
v 0.076133 -0.078843 0.146549
v 0.079421 -0.076794 0.079307
v 0.076821 -0.079934 0.090207
v 0.085518 -0.074031 0.086632
v 0.078222 -0.077598 0.050948
v 0.085513 -0.075330 0.042874
v 0.076061 -0.081229 0.040104
v 0.087197 -0.073872 -0.040365
v 0.080278 -0.077823 -0.048189
v 0.078481 -0.080701 -0.036494
v 0.079733 -0.056311 -0.172291
v 0.087463 -0.048199 -0.167677
v 0.079189 -0.044963 -0.175930
v 0.073224 0.373296 -0.176916
v 0.061937 0.379656 -0.174825
v 0.063302 0.370203 -0.179195
v 0.080435 -0.075515 -0.075596
v 0.085886 -0.072675 -0.083210
v 0.077040 -0.079010 -0.085744
v 0.082067 -0.074049 -0.149945
v 0.075106 -0.074833 -0.157633
v 0.071966 -0.079560 -0.148440
v 0.025142 0.431047 -0.067282
v 0.030098 0.430844 -0.070523
v 0.040761 0.428009 -0.073237
v 0.033277 0.418522 -0.071001
v 0.026962 0.458807 -0.074357
v 0.021795 0.463562 -0.076195
v 0.027926 0.470694 -0.086092
v 0.035397 0.461347 -0.082265
v 0.022588 0.462716 0.073841
v 0.026628 0.456986 0.072026
v 0.035290 0.459541 0.081593
v 0.028079 0.468214 0.084633
v 0.028682 0.421241 0.071581
v 0.036026 0.430486 0.073123
v 0.026415 0.434823 0.065248
v 0.022458 0.431370 0.063802
v -0.062589 0.395889 0.053848
v -0.061193 0.396338 -0.056176
v -0.060522 -0.047456 0.243660
v -0.054184 -0.053364 0.244141
v -0.052158 -0.046459 0.245570
v -0.060530 0.339828 0.244170
v -0.052209 0.337111 0.246086
v -0.053749 0.346494 0.243648
v -0.073738 0.394786 0.168719
v -0.081065 0.395452 0.164787
v -0.087285 0.384991 0.167231
v -0.084104 0.380340 0.179933
v -0.075549 0.387055 0.178093
v -0.083416 -0.062019 0.183390
v -0.086459 -0.053903 0.181785
v -0.089055 -0.054715 0.169788
v -0.087125 -0.066683 0.158746
v -0.082669 -0.067529 0.171252
v -0.044178 0.475798 0.135940
v -0.052924 0.469853 0.138224
v -0.044431 0.468064 0.145360
v -0.076664 0.403877 0.067151
v -0.065825 0.398764 0.062650
v -0.087585 0.392013 0.054059
v -0.091396 0.382735 0.054132
v -0.091596 0.382795 0.066658
v -0.088077 0.394899 0.068664
v -0.047370 0.465787 0.083832
v -0.054575 0.470337 0.093046
v -0.044166 0.475267 0.094399
v -0.035716 0.472268 0.088106
v -0.064629 0.400260 -0.064295
v -0.077324 0.404839 -0.067666
v -0.088612 0.395016 -0.070836
v -0.091474 0.383589 -0.068763
v -0.091302 0.383505 -0.056265
v -0.087575 0.392544 -0.055755
v -0.089074 -0.067289 0.079265
v -0.091991 -0.056195 0.070597
v -0.092013 -0.056251 0.058028
v -0.089928 -0.067491 0.050470
v -0.087157 -0.071458 0.059271
v -0.085994 -0.071589 0.068572
v -0.091947 -0.056318 -0.071988
v -0.089214 -0.067869 -0.078596
v -0.084758 -0.072299 -0.069942
v -0.089050 -0.068210 -0.060815
v -0.089863 -0.067643 -0.048235
v -0.091974 -0.056305 -0.059397
v -0.036657 0.473279 -0.088573
v -0.046902 0.474131 -0.092399
v -0.057026 0.467958 -0.091689
v -0.049302 0.465000 -0.083512
v -0.075137 0.395097 -0.165462
v -0.087910 0.383137 -0.160857
v -0.083542 0.394952 -0.159176
v -0.047382 0.467418 -0.145421
v -0.055245 0.468050 -0.138032
v -0.046731 0.474309 -0.136039
v -0.085847 -0.069081 -0.151634
v -0.089311 -0.057192 -0.154332
v -0.078566 -0.069097 -0.163223
v -0.077147 -0.075001 0.157562
v -0.083983 -0.073090 0.150652
v -0.076133 -0.078843 0.146549
v -0.079421 -0.076794 0.079307
v -0.076821 -0.079934 0.090207
v -0.085518 -0.074031 0.086632
v -0.078222 -0.077598 0.050948
v -0.085513 -0.075330 0.042874
v -0.076061 -0.081229 0.040104
v -0.087197 -0.073872 -0.040365
v -0.080278 -0.077823 -0.048189
v -0.078481 -0.080701 -0.036494
v -0.079733 -0.056311 -0.172291
v -0.087463 -0.048199 -0.167677
v -0.079189 -0.044963 -0.175930
v -0.073224 0.373296 -0.176916
v -0.061937 0.379656 -0.174825
v -0.063302 0.370203 -0.179195
v -0.080435 -0.075515 -0.075596
v -0.085886 -0.072675 -0.083210
v -0.077040 -0.079010 -0.085744
v -0.082067 -0.074049 -0.149945
v -0.075106 -0.074833 -0.157633
v -0.071966 -0.079560 -0.148440
v -0.025142 0.431047 -0.067282
v -0.030098 0.430844 -0.070523
v -0.040761 0.428009 -0.073237
v -0.033277 0.418522 -0.071001
v -0.026962 0.458807 -0.074357
v -0.021795 0.463562 -0.076195
v -0.027926 0.470694 -0.086092
v -0.035397 0.461347 -0.082265
v -0.022588 0.462716 0.073841
v -0.026628 0.456986 0.072026
v -0.035290 0.459541 0.081593
v -0.028079 0.468214 0.084633
v -0.028682 0.421241 0.071581
v -0.036026 0.430486 0.073123
v -0.026415 0.434823 0.065248
v -0.022458 0.431370 0.063802
vn 0.0110 0.5313 0.8471
vn 0.0481 0.9978 0.0463
vn 0.4559 0.8896 0.0254
vn 0.1027 0.3577 -0.9282
vn 0.7390 0.0339 -0.6728
vn 0.0874 0.0155 -0.9961
vn 0.0084 0.4710 -0.8821
vn 0.2395 0.4151 0.8777
vn 0.9208 0.3875 0.0450
vn 0.9927 0.0211 -0.1191
vn 0.9091 0.3831 -0.1639
vn 0.0463 0.9984 -0.0324
vn -0.0000 0.9986 0.0532
vn 0.0002 0.9993 -0.0378
vn -0.0132 0.5740 -0.8187
vn 0.4457 0.8945 -0.0360
vn 0.2166 0.4196 -0.8815
vn 0.9086 0.4168 -0.0266
vn 0.8853 0.0019 0.4650
vn 0.0293 0.0217 0.9993
vn 0.1420 -0.9227 0.3584
vn 0.8741 0.0186 0.4854
vn 0.0740 0.7934 0.6041
vn 0.0298 -0.0027 0.9996
vn 0.0736 0.4113 0.9085
vn 0.0834 0.8235 0.5611
vn 0.9362 0.0336 0.3497
vn 0.9965 0.0188 0.0813
vn 0.8932 0.4211 0.1576
vn 0.1718 -0.9529 0.2498
vn 0.1892 -0.9078 0.3743
vn 0.9986 0.0019 0.0531
vn 0.9402 0.0038 0.3406
vn 0.1335 0.9818 0.1353
vn 0.0684 0.3825 0.9214
vn 0.8755 0.4545 0.1640
vn 0.2590 0.4115 -0.8738
vn 0.0635 0.7773 -0.6259
vn 0.1417 0.9849 -0.0996
vn 0.8794 0.4719 -0.0635
vn 0.9413 -0.3370 0.0205
vn 0.9446 -0.3278 0.0177
vn 1.0000 -0.0015 -0.0011
vn 0.9996 -0.0003 0.0277
vn 0.9992 -0.0019 -0.0388
vn 0.2820 -0.9197 -0.2732
vn 0.2276 -0.9315 0.2838
vn 0.9204 -0.3904 -0.0214
vn 0.0927 0.7137 0.6943
vn 0.2695 0.4008 0.8756
vn 0.8845 0.4604 0.0756
vn 0.1815 0.9812 0.0661
vn 0.1499 -0.6080 -0.7797
vn 0.1642 -0.4663 -0.8693
vn 0.9935 -0.0058 -0.1137
vn 0.9101 -0.3980 -0.1155
vn 0.1061 0.3708 -0.9226
vn 0.1525 0.9816 -0.1151
vn 0.8820 0.4468 -0.1499
vn -0.0000 0.4727 -0.8812
vn -0.0001 0.3226 -0.9465
vn 0.0881 -0.9201 0.3817
vn 0.1024 -0.9926 0.0655
vn 0.7173 -0.6942 0.0602
vn 0.1142 -0.9499 -0.2910
vn 0.7310 -0.6823 0.0106
vn 0.0993 -0.9949 -0.0178
vn 0.1135 -0.9208 0.3732
vn 0.0962 -0.9945 0.0405
vn 0.7233 -0.6903 0.0190
vn 0.7352 -0.6778 -0.0070
vn 0.0938 -0.9953 -0.0221
vn 0.1255 -0.9194 -0.3728
vn 0.1100 -0.9432 0.3134
vn 0.0902 -0.9957 0.0207
vn 0.6472 -0.7622 -0.0157
vn 0.6387 -0.7665 -0.0671
vn 0.0807 -0.9939 -0.0755
vn 0.0814 -0.8131 -0.5763
vn 0.1028 -0.9940 0.0368
vn 0.0345 0.1571 0.9870
vn 0.1135 0.2717 0.9557
vn 0.9638 -0.2301 0.1344
vn 0.9706 0.2286 0.0760
vn 0.1377 0.3122 0.9400
vn 0.0826 0.6811 0.7275
vn 0.2275 0.9720 0.0592
vn 0.2272 0.9727 -0.0467
vn 0.1037 0.7264 -0.6794
vn 0.1955 0.3224 -0.9262
vn 0.9735 0.2223 -0.0540
vn 0.0254 0.1483 -0.9886
vn 0.0161 -0.9971 -0.0741
vn 0.9908 -0.1154 -0.0702
vn 0.1613 0.2649 -0.9507
vn 0.0001 0.8021 0.5972
vn 0.0001 -0.0025 1.0000
vn -0.0000 0.0241 0.9997
vn -0.0008 -0.9480 0.3183
vn -0.0000 0.3792 0.9253
vn -0.0000 0.8320 0.5548
vn -0.0000 0.9891 0.1471
vn -0.0001 0.3575 0.9339
vn 0.9996 0.0085 0.0284
vn -0.0000 0.8460 -0.5332
vn -0.0003 0.9968 -0.0801
vn -0.0001 0.6017 -0.7987
vn -0.0000 0.9994 -0.0350
vn -0.0003 0.8011 -0.5985
vn -0.0000 0.5562 0.8310
vn 1.0000 0.0034 0.0010
vn 1.0000 0.0040 0.0012
vn 0.9337 -0.3534 0.0585
vn -0.0000 -0.9755 0.2202
vn -0.0000 -0.9233 0.3841
vn 0.1748 -0.9652 0.1943
vn 0.1710 -0.9594 -0.2245
vn -0.0000 -0.9690 -0.2471
vn -0.0000 -0.9820 0.1888
vn 0.9994 0.0072 -0.0340
vn 1.0000 0.0030 0.0031
vn 0.9495 -0.3136 -0.0132
vn -0.0000 -0.9703 -0.2419
vn -0.0000 -0.9587 0.2844
vn -0.0000 0.9988 0.0480
vn -0.0002 0.8082 0.5889
vn -0.0000 0.3464 -0.9381
vn 0.0002 0.9918 -0.1276
vn 0.7587 0.0007 -0.6515
vn -0.0000 -0.6039 -0.7971
vn -0.0000 -0.4687 -0.8834
vn 0.1066 -0.0027 -0.9943
vn -0.0000 -0.9998 -0.0220
vn -0.0000 -0.9543 -0.2989
vn -0.0000 -0.9212 0.3890
vn 0.0001 -0.9968 0.0798
vn -0.0000 -0.9173 0.3983
vn 0.0001 -0.9986 0.0530
vn -0.0000 -0.9997 -0.0241
vn -0.0000 -0.9217 -0.3880
vn -0.0000 -0.0120 -0.9999
vn -0.0000 0.0115 -0.9999
vn -0.0000 -0.9426 0.3339
vn 0.0001 -0.9994 0.0356
vn 0.0001 -0.9970 -0.0772
vn -0.0000 -0.8070 -0.5906
vn -0.0000 -0.9970 0.0774
vn 0.0022 0.0666 0.9978
vn -0.0000 0.7532 0.6578
vn -0.0019 0.9988 0.0489
vn -0.0000 0.0800 -0.9968
vn -0.0069 -0.9978 -0.0657
vn 0.0065 0.5353 0.8446
vn -0.4482 0.8928 0.0459
vn -0.0310 0.9983 0.0485
vn -0.1066 0.3451 -0.9325
vn -0.0090 0.4722 -0.8814
vn -0.0959 0.0113 -0.9953
vn -0.7335 0.0235 -0.6793
vn -0.2385 0.4157 0.8777
vn -0.9176 0.3958 0.0359
vn -0.9919 0.0104 -0.1264
vn -0.9077 0.3864 -0.1634
vn -0.0466 0.9984 -0.0323
vn -0.4537 0.8910 -0.0135
vn -0.0101 0.5691 -0.8222
vn -0.9125 0.4070 -0.0418
vn -0.2196 0.4179 -0.8815
vn -0.8879 -0.0074 0.4600
vn -0.1504 -0.9227 0.3549
vn -0.0291 0.0216 0.9993
vn -0.8769 0.0299 0.4797
vn -0.0280 -0.0017 0.9996
vn -0.0775 0.7942 0.6027
vn -0.0763 0.4090 0.9093
vn -0.8968 0.4107 0.1647
vn -0.9976 0.0306 0.0622
vn -0.9274 0.0231 0.3733
vn -0.0816 0.8202 0.5663
vn -0.1683 -0.9500 0.2632
vn -0.9403 0.0039 0.3404
vn -0.9982 0.0053 0.0593
vn -0.1891 -0.9068 0.3767
vn -0.1372 0.9816 0.1327
vn -0.8751 0.4558 0.1623
vn -0.0716 0.3805 0.9220
vn -0.2584 0.4115 -0.8740
vn -0.8810 0.4682 -0.0682
vn -0.1490 0.9842 -0.0953
vn -0.0608 0.7774 -0.6261
vn -0.9416 -0.3363 0.0166
vn -0.9995 -0.0007 0.0316
vn -1.0000 -0.0013 0.0028
vn -0.9443 -0.3288 0.0131
vn -0.9997 -0.0007 -0.0253
vn -0.9190 -0.3931 -0.0310
vn -0.2154 -0.9493 0.2289
vn -0.2691 -0.9452 -0.1848
vn -0.0910 0.7128 0.6955
vn -0.1674 0.9831 0.0744
vn -0.8844 0.4607 0.0753
vn -0.2713 0.4007 0.8751
vn -0.1516 -0.6021 -0.7839
vn -0.9113 -0.3943 -0.1186
vn -0.9943 -0.0135 -0.1057
vn -0.1629 -0.4765 -0.8640
vn -0.1016 0.3737 -0.9220
vn -0.8823 0.4459 -0.1509
vn -0.1488 0.9818 -0.1183
vn -0.0894 -0.9173 0.3880
vn -0.7211 -0.6902 0.0605
vn -0.0981 -0.9923 0.0756
vn -0.1125 -0.9526 -0.2827
vn -0.1024 -0.9947 -0.0087
vn -0.7287 -0.6847 0.0101
vn -0.1144 -0.9196 0.3758
vn -0.7255 -0.6879 0.0198
vn -0.0911 -0.9946 0.0501
vn -0.7336 -0.6795 -0.0089
vn -0.1246 -0.9209 -0.3693
vn -0.0973 -0.9952 -0.0116
vn -0.1118 -0.9409 0.3198
vn -0.6492 -0.7603 -0.0192
vn -0.0868 -0.9958 0.0291
vn -0.6367 -0.7682 -0.0674
vn -0.0816 -0.8124 -0.5774
vn -0.0844 -0.9939 -0.0714
vn 0.0486 -0.9942 0.0955
vn -0.9888 -0.0924 0.1173
vn -0.1128 0.2698 0.9563
vn -0.0344 0.1539 0.9875
vn -0.9705 0.2289 0.0758
vn -0.2230 0.9729 0.0604
vn -0.0822 0.6811 0.7276
vn -0.1336 0.3148 0.9397
vn -0.2394 0.9700 -0.0417
vn -0.9727 0.2265 -0.0509
vn -0.1997 0.3189 -0.9265
vn -0.1046 0.7265 -0.6791
vn -0.0302 0.1524 -0.9879
vn -0.1649 0.2710 -0.9483
vn -0.9897 -0.1263 -0.0668
vn -0.0708 -0.9964 -0.0476
vn -0.9994 0.0094 0.0335
vn -1.0000 0.0038 -0.0025
vn -1.0000 0.0036 -0.0028
vn -0.9344 -0.3506 0.0632
vn -0.1730 -0.9676 0.1837
vn -0.1690 -0.9613 -0.2178
vn -0.9994 0.0069 -0.0329
vn -1.0000 0.0031 0.0022
vn -0.9490 -0.3150 -0.0089
vn -0.7617 0.0014 -0.6480
vn -0.1045 -0.0055 -0.9945
vt 0.025233 0.553701
vt 0.027163 0.557896
vt 0.012002 0.559274
vt 0.023825 0.443898
vt 0.024939 0.431210
vt 0.030519 0.429572
vt 0.031145 0.435061
vt 0.017425 0.550469
vt 0.008748 0.552783
vt 0.846174 0.544104
vt 0.838827 0.520326
vt 0.861917 0.532337
vt 0.859022 0.544324
vt 0.025893 0.618562
vt 0.061130 0.557868
vt 0.060729 0.618852
vt 0.023893 0.622891
vt 0.011373 0.617151
vt 0.016990 0.626482
vt 0.008783 0.623821
vt 0.414205 0.961516
vt 0.413821 0.971779
vt 0.405096 0.966949
vt 0.800007 0.961176
vt 0.809914 0.966806
vt 0.798468 0.971779
vt 0.864524 0.887743
vt 0.854777 0.895657
vt 0.842329 0.892203
vt 0.847209 0.878624
vt 0.860558 0.878222
vt 0.392482 0.895219
vt 0.384667 0.882977
vt 0.401784 0.878278
vt 0.403169 0.891621
vt 0.951784 0.853887
vt 0.943791 0.865489
vt 0.940007 0.853469
vt 0.036313 0.659593
vt 0.042358 0.663697
vt 0.037607 0.667688
vt 0.031415 0.664894
vt 0.015734 0.095537
vt 0.015220 0.111193
vt 0.008748 0.107017
vt 0.008934 0.099997
vt 0.010398 0.174474
vt 0.017834 0.167734
vt 0.021444 0.172394
vt 0.017402 0.177435
vt 0.043145 0.514081
vt 0.036479 0.518873
vt 0.031404 0.514476
vt 0.037630 0.511635
vt 0.028742 0.216832
vt 0.027277 0.223895
vt 0.018010 0.216197
vt 0.024032 0.211597
vt 0.940967 0.545296
vt 0.949524 0.556203
vt 0.937537 0.557122
vt 0.061951 0.435917
vt 0.061894 0.444325
vt 0.025582 0.056657
vt 0.026725 0.062593
vt 0.021545 0.060431
vt 0.023937 0.095841
vt 0.020105 0.091667
vt 0.025898 0.090055
vt 0.024756 0.110993
vt 0.026283 0.116814
vt 0.020220 0.115341
vt 0.019854 0.156260
vt 0.025707 0.154185
vt 0.024479 0.160290
vt 0.024402 0.175353
vt 0.026763 0.180439
vt 0.020987 0.179536
vt 0.027043 0.209881
vt 0.032394 0.208447
vt 0.030821 0.213230
vt 0.173432 0.416753
vt 0.167816 0.402752
vt 0.178852 0.399523
vt 0.179281 0.411366
vt 0.218641 0.405472
vt 0.216877 0.394699
vt 0.228087 0.390647
vt 0.229315 0.404384
vt 0.226116 0.605261
vt 0.225109 0.619624
vt 0.213231 0.616596
vt 0.214949 0.603254
vt 0.170334 0.605117
vt 0.174871 0.592502
vt 0.182856 0.595102
vt 0.181406 0.607686
vt 0.059368 0.782638
vt 0.059316 0.788417
vt 0.032221 0.788122
vt 0.031411 0.782466
vt 0.029188 0.990537
vt 0.030452 0.986142
vt 0.057549 0.986386
vt 0.057505 0.991252
vt 0.059796 0.734577
vt 0.059739 0.740968
vt 0.020316 0.742363
vt 0.021316 0.736368
vt 0.060192 0.689582
vt 0.060138 0.695774
vt 0.037075 0.696980
vt 0.037308 0.689895
vt 0.946172 0.808578
vt 0.958392 0.811956
vt 0.849739 0.775019
vt 0.863600 0.777307
vt 0.060391 0.665410
vt 0.060357 0.669621
vt 0.060684 0.625544
vt 0.256637 0.604277
vt 0.256637 0.617583
vt 0.061174 0.551396
vt 0.851177 0.648653
vt 0.862806 0.649411
vt 0.861909 0.761916
vt 0.849969 0.762127
vt 0.011897 0.049222
vt 0.018013 0.055922
vt 0.400850 0.776128
vt 0.400885 0.763230
vt 0.021067 0.048892
vt 0.020291 0.041956
vt 0.064609 0.041219
vt 0.064574 0.046378
vt 0.018791 0.106314
vt 0.019394 0.101646
vt 0.064206 0.101011
vt 0.064181 0.104759
vt 0.851017 0.635823
vt 0.401379 0.643101
vt 0.401338 0.630233
vt 0.016263 0.160728
vt 0.009956 0.167366
vt 0.063772 0.165536
vt 0.063745 0.169453
vt 0.061441 0.511585
vt 0.061428 0.513515
vt 0.956949 0.601723
vt 0.943893 0.604678
vt 0.863854 0.633496
vt 0.061629 0.483755
vt 0.061588 0.489756
vt 0.037961 0.488694
vt 0.037649 0.482057
vt 0.401418 0.542143
vt 0.411290 0.527175
vt 0.063406 0.219845
vt 0.063358 0.227002
vt 0.027039 0.229655
vt 0.020720 0.226321
vt 0.064279 0.090152
vt 0.064237 0.096505
vt 0.064519 0.054603
vt 0.064476 0.060980
vt 0.064156 0.108460
vt 0.064126 0.112958
vt 0.063846 0.154454
vt 0.063805 0.160609
vt 0.063319 0.232690
vt 0.061987 0.430521
vt 0.063717 0.173711
vt 0.063689 0.177767
vt 0.063470 0.210297
vt 0.063434 0.215754
vt 0.143569 0.434549
vt 0.138100 0.425055
vt 0.256637 0.393772
vt 0.256637 0.406239
vt 0.039347 0.538878
vt 0.043278 0.544441
vt 0.042184 0.656007
vt 0.046164 0.660919
vt 0.047438 0.516087
vt 0.043316 0.521295
vt 0.045136 0.634852
vt 0.041043 0.640230
vt 0.141464 0.592044
vt 0.145479 0.581943
vt 0.064828 0.008748
vt 0.035757 0.008778
vt 0.060632 0.634315
vt 0.060414 0.662411
vt 0.061222 0.544196
vt 0.061416 0.515379
vt 0.097079 0.554183
vt 0.110234 0.559934
vt 0.095093 0.558352
vt 0.099966 0.444411
vt 0.092766 0.435476
vt 0.093466 0.429996
vt 0.099023 0.431709
vt 0.104930 0.551057
vt 0.113574 0.553487
vt 0.846174 0.461058
vt 0.859022 0.460838
vt 0.861917 0.472825
vt 0.838827 0.484836
vt 0.095545 0.619031
vt 0.110084 0.617811
vt 0.097486 0.623386
vt 0.112589 0.624513
vt 0.104345 0.627075
vt 0.414205 0.043646
vt 0.405096 0.038213
vt 0.413821 0.033383
vt 0.800007 0.043986
vt 0.798468 0.033383
vt 0.809914 0.038356
vt 0.864524 0.117419
vt 0.860558 0.126940
vt 0.847209 0.126538
vt 0.842329 0.112959
vt 0.854777 0.109505
vt 0.392482 0.109943
vt 0.403169 0.113540
vt 0.401784 0.126883
vt 0.384667 0.122185
vt 0.951784 0.151275
vt 0.940007 0.151692
vt 0.943791 0.139673
vt 0.084617 0.659972
vt 0.089448 0.665360
vt 0.083183 0.668073
vt 0.078478 0.663991
vt 0.112747 0.096190
vt 0.119487 0.100742
vt 0.119578 0.107763
vt 0.113050 0.111852
vt 0.117020 0.175192
vt 0.109977 0.178059
vt 0.106003 0.172964
vt 0.109676 0.168352
vt 0.079702 0.514327
vt 0.085250 0.511955
vt 0.091437 0.514880
vt 0.086303 0.519208
vt 0.098108 0.217299
vt 0.102887 0.212128
vt 0.108847 0.216808
vt 0.099477 0.224381
vt 0.940967 0.459866
vt 0.937537 0.448040
vt 0.949524 0.448959
vt 0.103425 0.057181
vt 0.107410 0.061009
vt 0.102201 0.063102
vt 0.104541 0.096384
vt 0.102658 0.090572
vt 0.108429 0.092261
vt 0.103518 0.111523
vt 0.107995 0.115932
vt 0.101913 0.117323
vt 0.107810 0.156852
vt 0.103131 0.160820
vt 0.101986 0.154699
vt 0.103005 0.175882
vt 0.106364 0.180111
vt 0.100576 0.180936
vt 0.099900 0.210372
vt 0.096078 0.213670
vt 0.094569 0.208866
vt 0.339842 0.416753
vt 0.333993 0.411367
vt 0.334422 0.399523
vt 0.345458 0.402752
vt 0.294633 0.405472
vt 0.283959 0.404385
vt 0.285187 0.390647
vt 0.296397 0.394699
vt 0.287158 0.605261
vt 0.298325 0.603254
vt 0.300042 0.616596
vt 0.288165 0.619624
vt 0.342940 0.605117
vt 0.331868 0.607686
vt 0.330418 0.595102
vt 0.338403 0.592502
vt 0.087323 0.782965
vt 0.086412 0.788605
vt 0.085831 0.991043
vt 0.084645 0.986626
vt 0.098240 0.737054
vt 0.099133 0.743066
vt 0.083080 0.690296
vt 0.083187 0.697387
vt 0.958392 0.193206
vt 0.946172 0.196583
vt 0.849739 0.230142
vt 0.863600 0.227855
vt 0.851177 0.356509
vt 0.849969 0.243035
vt 0.861909 0.243245
vt 0.862806 0.355751
vt 0.111003 0.056548
vt 0.117208 0.049931
vt 0.400885 0.241932
vt 0.400850 0.229034
vt 0.108043 0.049478
vt 0.108912 0.042553
vt 0.109546 0.106925
vt 0.109006 0.102250
vt 0.851017 0.369338
vt 0.401338 0.374929
vt 0.401379 0.362061
vt 0.111341 0.161368
vt 0.117558 0.168090
vt 0.956949 0.403438
vt 0.943893 0.400484
vt 0.863854 0.371666
vt 0.085629 0.482380
vt 0.085228 0.489013
vt 0.401418 0.463019
vt 0.411290 0.477987
vt 0.106001 0.226896
vt 0.099638 0.230144
vt 0.369705 0.434549
vt 0.375174 0.425055
vt 0.083167 0.539172
vt 0.079161 0.544682
vt 0.078801 0.656321
vt 0.074704 0.661138
vt 0.079434 0.521538
vt 0.075383 0.516275
vt 0.076136 0.635013
vt 0.080045 0.640474
vt 0.367795 0.581943
vt 0.371810 0.592044
vt 0.093895 0.009170
s 1
f 82/1/1 50/2/2 87/3/3
f 104/4/4 128/5/5 130/6/6 129/7/7
f 83/8/8 87/3/3 84/9/9
f 105/10/10 128/11/5 104/12/4 106/13/11
f 21/14/12 50/2/2 14/15/13 11/16/14
f 21/14/12 73/17/15 74/18/16
f 74/18/16 72/19/17 77/20/18
f 53/21/19 55/22/20 54/23/21
f 56/24/22 58/25/23 57/26/24
f 59/27/25 63/28/26 62/29/27 61/30/28 60/31/29
f 64/32/30 68/33/31 66/34/32 65/35/33
f 69/36/34 71/37/35 70/38/36
f 72/19/17 74/18/16 73/17/15
f 78/39/37 81/40/38 80/41/39 79/42/40
f 82/1/1 87/3/3 83/8/8
f 88/43/41 91/44/42 90/45/43 89/46/44
f 94/47/45 97/48/46 96/49/47 95/50/48
f 100/51/49 103/52/50 102/53/51 101/54/52
f 112/55/53 125/56/54 111/57/55 110/58/56
f 107/59/57 109/60/58 108/61/59
f 104/4/4 129/7/7 39/62/60 26/63/61
f 113/64/62 115/65/63 114/66/64
f 116/67/65 118/68/66 117/69/67
f 119/70/68 121/71/69 120/72/70
f 122/73/71 124/74/72 123/75/73
f 131/76/74 133/77/75 132/78/76
f 134/79/77 136/80/78 135/81/79
f 137/82/80 140/83/81 139/84/82 138/85/83
f 141/86/84 144/87/85 143/88/86 142/89/87
f 145/90/88 148/91/89 147/92/90 146/93/91
f 149/94/92 152/95/93 151/96/94 150/97/95
f 56/24/22 57/26/24 55/22/20 53/21/19
f 3/98/96 4/99/97 57/100/24 58/101/23
f 54/102/21 55/103/20 1/104/98 2/105/99
f 5/106/100 6/107/101 63/108/26 59/109/25
f 62/29/27 63/28/26 58/25/23 56/24/22
f 64/32/30 65/35/33 53/21/19 54/23/21
f 61/30/28 62/29/27 65/35/33 66/34/32
f 7/110/102 8/111/103 71/112/35 69/113/34
f 70/38/36 71/37/35 59/27/25 60/31/29
f 78/39/37 79/42/40 77/20/18 72/19/17
f 69/36/34 70/38/36 79/114/40 80/115/39
f 76/116/104 77/117/18 60/31/29 61/30/28
f 9/118/105 10/119/106 80/41/39 81/40/38
f 11/16/14 12/120/107 73/17/15 21/14/12
f 48/121/108 49/122/109 148/91/89 145/90/88
f 13/123/110 14/15/13 50/2/2 82/1/1
f 86/124/111 87/125/3 74/126/16 75/127/112
f 88/43/41 89/46/44 66/128/32 67/129/113
f 75/127/112 76/116/104 89/130/44 90/131/43
f 68/132/31 64/133/30 15/134/114 16/135/115
f 92/136/116 93/137/117 17/138/118 18/139/119
f 85/140/120 86/124/111 99/141/121 94/142/45
f 98/143/122 99/144/121 90/45/43 91/44/42
f 96/49/47 97/48/46 19/145/123 20/146/124
f 22/147/125 23/148/126 100/51/49 101/54/52
f 102/53/51 103/52/50 83/8/8 84/9/9
f 107/59/57 108/61/59 106/13/11 104/12/4
f 101/149/52 102/150/51 108/61/59 109/60/58
f 105/10/10 106/13/11 84/151/9 85/140/120
f 24/152/127 25/153/128 109/154/58 107/155/57
f 111/156/55 126/157/129 128/11/5 105/10/10
f 110/58/56 111/57/55 94/47/45 95/50/48
f 27/158/130 36/159/131 125/56/54 112/55/53
f 111/57/55 125/56/54 127/160/132 126/161/129
f 116/67/65 117/69/67 28/162/133 29/163/134
f 115/65/63 113/64/62 30/164/135 31/165/136
f 117/69/67 118/68/66 114/66/64 115/65/63
f 67/129/113 68/132/31 113/64/62 114/66/64
f 93/137/117 88/43/41 118/68/66 116/67/65
f 121/71/69 119/70/68 32/166/137 33/167/138
f 124/74/72 122/73/71 120/72/70 121/71/69
f 123/75/73 124/74/72 34/168/139 35/169/140
f 91/44/42 92/136/116 119/70/68 120/72/70
f 97/48/46 98/143/122 122/73/71 123/75/73
f 36/159/131 37/170/141 127/160/132 125/56/54
f 130/6/6 128/5/5 126/161/129 127/160/132
f 38/171/142 39/62/60 129/7/7 130/6/6
f 133/77/75 131/76/74 40/172/143 41/173/144
f 136/80/78 134/79/77 132/78/76 133/77/75
f 42/174/145 43/175/146 135/81/79 136/80/78
f 95/50/48 96/49/47 131/76/74 132/78/76
f 112/55/53 110/58/56 134/79/77 135/81/79
f 44/176/147 45/177/148 140/83/81 137/82/80
f 144/87/85 141/86/84 138/85/83 139/84/82
f 46/178/149 47/179/150 142/89/87 143/88/86
f 139/180/82 140/181/81 82/1/1 83/8/8
f 147/182/90 148/183/89 81/40/38 78/39/37
f 103/52/50 100/51/49 143/184/86 144/185/85
f 149/186/92 150/187/95 72/19/17 73/17/15
f 146/93/91 147/92/90 150/97/95 151/96/94
f 152/95/93 149/94/92 51/188/151 52/189/152
f 151/96/94 152/95/93 137/82/80 138/85/83
f 145/90/88 146/93/91 141/86/84 142/89/87
f 53/21/19 65/35/33 62/29/27 56/24/22
f 55/103/20 57/100/24 4/99/97 1/104/98
f 2/190/99 15/134/114 64/133/30 54/191/21
f 58/101/23 63/108/26 6/107/101 3/98/96
f 59/109/25 71/112/35 8/111/103 5/106/100
f 60/31/29 77/117/18 79/114/40 70/38/36
f 66/34/32 89/130/44 76/116/104 61/30/28
f 16/135/115 30/164/135 113/64/62 68/132/31
f 67/129/113 114/66/64 118/68/66 88/43/41
f 10/119/106 7/110/102 69/113/34 80/41/39
f 72/19/17 150/187/95 147/182/90 78/39/37
f 74/18/16 87/3/3 50/2/2 21/14/12
f 99/141/121 86/124/111 75/127/112 90/131/43
f 12/120/107 51/192/151 149/186/92 73/17/15
f 81/40/38 148/183/89 49/193/109 9/118/105
f 82/1/1 140/181/81 45/194/148 13/123/110
f 84/151/9 106/13/11 108/61/59 102/150/51
f 94/142/45 111/156/55 105/10/10 85/140/120
f 103/52/50 144/185/85 139/180/82 83/8/8
f 18/139/119 32/166/137 119/70/68 92/136/116
f 93/137/117 116/67/65 29/163/134 17/138/118
f 91/44/42 120/72/70 122/73/71 98/143/122
f 97/48/46 123/75/73 35/169/140 19/145/123
f 95/50/48 132/78/76 134/79/77 110/58/56
f 20/146/124 40/172/143 131/76/74 96/49/47
f 23/148/126 46/195/149 143/184/86 100/51/49
f 25/153/128 22/147/125 101/54/52 109/154/58
f 104/4/4 26/63/61 24/152/127 107/155/57
f 112/55/53 135/81/79 43/175/146 27/158/130
f 28/162/133 117/69/67 115/65/63 31/165/136
f 33/167/138 34/168/139 124/74/72 121/71/69
f 37/170/141 38/171/142 130/6/6 127/160/132
f 41/173/144 42/174/145 136/80/78 133/77/75
f 52/189/152 44/176/147 137/82/80 152/95/93
f 151/96/94 138/85/83 141/86/84 146/93/91
f 145/90/88 142/89/87 47/179/150 48/121/108
f 84/151/9 87/125/3 86/124/111 85/140/120
f 74/126/16 77/117/18 76/116/104 75/127/112
f 91/44/42 88/43/41 93/137/117 92/136/116
f 97/48/46 94/47/45 99/144/121 98/143/122
f 66/128/32 68/132/31 67/129/113
f 184/196/153 189/197/154 154/198/155
f 206/199/156 231/200/157 232/201/158 230/202/159
f 185/203/160 186/204/161 189/197/154
f 207/205/162 208/206/163 206/207/156 230/208/159
f 153/209/164 11/16/14 14/15/13 154/198/155
f 153/209/164 176/210/165 175/211/166
f 176/210/165 179/212/167 174/213/168
f 155/214/169 156/215/170 157/216/171
f 158/217/172 159/218/173 160/219/174
f 161/220/175 162/221/176 163/222/177 164/223/178 165/224/179
f 166/225/180 167/226/181 168/227/182 170/228/183
f 171/229/184 172/230/185 173/231/186
f 174/213/168 175/211/166 176/210/165
f 180/232/187 181/233/188 182/234/189 183/235/190
f 184/196/153 185/203/160 189/197/154
f 190/236/191 191/237/192 192/238/193 193/239/194
f 196/240/195 197/241/196 198/242/197 199/243/198
f 202/244/199 203/245/200 204/246/201 205/247/202
f 214/248/203 212/249/204 213/250/205 227/251/206
f 209/252/207 210/253/208 211/254/209
f 206/199/156 26/63/61 39/62/60 231/200/157
f 215/255/210 216/256/211 217/257/212
f 218/258/213 219/259/214 220/260/215
f 221/261/216 222/262/217 223/263/218
f 224/264/219 225/265/220 226/266/221
f 233/267/222 234/268/223 235/269/224
f 236/270/225 237/271/226 238/272/227
f 239/273/228 240/274/229 241/275/230 242/276/231
f 243/277/232 244/278/233 245/279/234 246/280/235
f 247/281/236 248/282/237 249/283/238 250/284/239
f 251/285/240 252/286/241 253/287/242 254/288/243
f 158/217/172 155/214/169 157/216/171 159/218/173
f 3/98/96 160/289/174 159/290/173 4/99/97
f 156/291/170 2/105/99 1/104/98 157/292/171
f 5/106/100 161/293/175 165/294/179 6/107/101
f 164/223/178 158/217/172 160/219/174 165/224/179
f 166/225/180 156/215/170 155/214/169 167/226/181
f 163/222/177 168/227/182 167/226/181 164/223/178
f 7/110/102 171/295/184 173/296/186 8/111/103
f 172/230/185 162/221/176 161/220/175 173/231/186
f 180/232/187 174/213/168 179/212/167 181/233/188
f 171/229/184 182/297/189 181/298/188 172/230/185
f 178/299/244 163/222/177 162/221/176 179/300/167
f 9/118/105 183/235/190 182/234/189 10/119/106
f 11/16/14 153/209/164 175/211/166 12/120/107
f 48/121/108 247/281/236 250/284/239 49/122/109
f 13/123/110 184/196/153 154/198/155 14/15/13
f 188/301/245 177/302/246 176/303/165 189/304/154
f 190/236/191 169/305/247 168/306/182 191/237/192
f 177/302/246 192/307/193 191/308/192 178/299/244
f 170/309/183 16/135/115 15/134/114 166/310/180
f 194/311/248 18/139/119 17/138/118 195/312/249
f 187/313/250 196/314/195 201/315/251 188/301/245
f 200/316/252 193/239/194 192/238/193 201/317/251
f 198/242/197 20/146/124 19/145/123 199/243/198
f 22/147/125 203/245/200 202/244/199 23/148/126
f 204/246/201 186/204/161 185/203/160 205/247/202
f 209/252/207 206/207/156 208/206/163 210/253/208
f 203/318/200 211/254/209 210/253/208 204/319/201
f 207/205/162 187/313/250 186/320/161 208/206/163
f 24/152/127 209/321/207 211/322/209 25/153/128
f 213/323/205 207/205/162 230/208/159 228/324/253
f 212/249/204 197/241/196 196/240/195 213/250/205
f 27/158/130 214/248/203 227/251/206 36/159/131
f 213/250/205 228/325/253 229/326/254 227/251/206
f 218/258/213 29/163/134 28/162/133 219/259/214
f 217/257/212 31/165/136 30/164/135 215/255/210
f 219/259/214 217/257/212 216/256/211 220/260/215
f 169/305/247 216/256/211 215/255/210 170/309/183
f 195/312/249 218/258/213 220/260/215 190/236/191
f 223/263/218 33/167/138 32/166/137 221/261/216
f 226/266/221 223/263/218 222/262/217 224/264/219
f 225/265/220 35/169/140 34/168/139 226/266/221
f 193/239/194 222/262/217 221/261/216 194/311/248
f 199/243/198 225/265/220 224/264/219 200/316/252
f 36/159/131 227/251/206 229/326/254 37/170/141
f 232/201/158 229/326/254 228/325/253 230/202/159
f 38/171/142 232/201/158 231/200/157 39/62/60
f 235/269/224 41/173/144 40/172/143 233/267/222
f 238/272/227 235/269/224 234/268/223 236/270/225
f 42/174/145 238/272/227 237/271/226 43/175/146
f 197/241/196 234/268/223 233/267/222 198/242/197
f 214/248/203 237/271/226 236/270/225 212/249/204
f 44/327/147 239/273/228 242/276/231 45/328/148
f 246/280/235 241/275/230 240/274/229 243/277/232
f 46/178/149 245/279/234 244/278/233 47/179/150
f 241/329/230 185/203/160 184/196/153 242/330/231
f 249/331/238 180/232/187 183/235/190 250/332/239
f 205/247/202 246/333/235 245/334/234 202/244/199
f 251/335/240 175/211/166 174/213/168 252/336/241
f 248/282/237 253/287/242 252/286/241 249/283/238
f 254/288/243 52/337/152 51/338/151 251/285/240
f 253/287/242 240/274/229 239/273/228 254/288/243
f 247/281/236 244/278/233 243/277/232 248/282/237
f 155/214/169 158/217/172 164/223/178 167/226/181
f 157/292/171 1/104/98 4/99/97 159/290/173
f 2/190/99 156/339/170 166/310/180 15/134/114
f 160/289/174 3/98/96 6/107/101 165/294/179
f 161/293/175 5/106/100 8/111/103 173/296/186
f 162/221/176 172/230/185 181/298/188 179/300/167
f 168/227/182 163/222/177 178/299/244 191/308/192
f 16/135/115 170/309/183 215/255/210 30/164/135
f 169/305/247 190/236/191 220/260/215 216/256/211
f 10/119/106 182/234/189 171/295/184 7/110/102
f 174/213/168 180/232/187 249/331/238 252/336/241
f 176/210/165 153/209/164 154/198/155 189/197/154
f 201/315/251 192/307/193 177/302/246 188/301/245
f 12/120/107 175/211/166 251/335/240 51/192/151
f 183/235/190 9/118/105 49/193/109 250/332/239
f 184/196/153 13/123/110 45/194/148 242/330/231
f 186/320/161 204/319/201 210/253/208 208/206/163
f 196/314/195 187/313/250 207/205/162 213/323/205
f 205/247/202 185/203/160 241/329/230 246/333/235
f 18/139/119 194/311/248 221/261/216 32/166/137
f 195/312/249 17/138/118 29/163/134 218/258/213
f 193/239/194 200/316/252 224/264/219 222/262/217
f 199/243/198 19/145/123 35/169/140 225/265/220
f 197/241/196 212/249/204 236/270/225 234/268/223
f 20/146/124 198/242/197 233/267/222 40/172/143
f 23/148/126 202/244/199 245/334/234 46/195/149
f 25/153/128 211/322/209 203/245/200 22/147/125
f 206/199/156 209/321/207 24/152/127 26/63/61
f 214/248/203 27/158/130 43/175/146 237/271/226
f 28/162/133 31/165/136 217/257/212 219/259/214
f 33/167/138 223/263/218 226/266/221 34/168/139
f 37/170/141 229/326/254 232/201/158 38/171/142
f 41/173/144 235/269/224 238/272/227 42/174/145
f 52/337/152 254/288/243 239/273/228 44/327/147
f 253/287/242 248/282/237 243/277/232 240/274/229
f 247/281/236 48/121/108 47/179/150 244/278/233
f 186/320/161 187/313/250 188/301/245 189/304/154
f 176/303/165 177/302/246 178/299/244 179/300/167
f 193/239/194 194/311/248 195/312/249 190/236/191
f 199/243/198 200/316/252 201/317/251 196/240/195
f 168/306/182 169/305/247 170/309/183
